HIERARCHY
ROOT Hips
{
	OFFSET 0.000000 0.000000 0.000000
	CHANNELS 6 Xposition Yposition Zposition Xrotation Yrotation Zrotation
	JOINT LeftUpLeg_virtual
	{
		OFFSET 0.000000 0.000000 0.000000
		CHANNELS 3 Xrotation Yrotation Zrotation
		JOINT LeftUpLeg
		{
			OFFSET 13.026900 -6.336304 -1.092800
			CHANNELS 3 Xrotation Yrotation Zrotation
			JOINT LeftLeg
			{
				OFFSET 0.524474 -46.096886 9.782700
				CHANNELS 3 Xrotation Yrotation Zrotation
				JOINT LeftFoot
				{
					OFFSET -0.524474 -53.427422 -12.948200
					CHANNELS 3 Xrotation Yrotation Zrotation
					JOINT LeftToeBase
					{
						OFFSET 0.192200 -14.009700 16.364100
						CHANNELS 3 Xrotation Yrotation Zrotation
						JOINT LeftToe_End
						{
							OFFSET -1.784700 -0.561700 9.474800
							CHANNELS 3 Xrotation Yrotation Zrotation
							End Site
							{
								OFFSET 0 0 0
							}
						}
					}
				}
			}
		}
	}
	JOINT RightUpLeg_virtual
	{
		OFFSET 0.000000 0.000000 0.000000
		CHANNELS 3 Xrotation Yrotation Zrotation
		JOINT RightUpLeg
		{
			OFFSET -12.883000 -6.336304 -1.092800
			CHANNELS 3 Xrotation Yrotation Zrotation
			JOINT RightLeg
			{
				OFFSET -0.524587 -46.096825 9.782800
				CHANNELS 3 Xrotation Yrotation Zrotation
				JOINT RightFoot
				{
					OFFSET 0.524587 -53.427383 -12.948300
					CHANNELS 3 Xrotation Yrotation Zrotation
					JOINT RightToeBase
					{
						OFFSET -0.192200 -14.009700 16.364100
						CHANNELS 3 Xrotation Yrotation Zrotation
						JOINT RightToe_End
						{
							OFFSET 1.784700 -0.561700 9.474800
							CHANNELS 3 Xrotation Yrotation Zrotation
							End Site
							{
								OFFSET 0 0 0
							}
						}
					}
				}
			}
		}
	}
	JOINT Spine_virtual
	{
		OFFSET 0.000000 0.000000 0.000000
		CHANNELS 3 Xrotation Yrotation Zrotation
		JOINT Spine
		{
			OFFSET 0.072000 7.257294 -0.789700
			CHANNELS 3 Xrotation Yrotation Zrotation
			JOINT Spine1
			{
				OFFSET 0.000000 12.508769 -0.658067
				CHANNELS 3 Xrotation Yrotation Zrotation
				JOINT Spine1_split
				{
					OFFSET 0.000000 12.508769 -0.658067
					CHANNELS 3 Xrotation Yrotation Zrotation
					JOINT Spine2
					{
						OFFSET 0.000000 12.508769 -0.658067
						CHANNELS 3 Xrotation Yrotation Zrotation
						JOINT Neck_virtual
						{
							OFFSET 0.000000 0.000000 0.000000
							CHANNELS 3 Xrotation Yrotation Zrotation
							JOINT Neck
							{
								OFFSET 0.000000 14.033295 7.520400
								CHANNELS 3 Xrotation Yrotation Zrotation
								JOINT Head
								{
									OFFSET 0.000000 8.198502 5.703100
									CHANNELS 3 Xrotation Yrotation Zrotation
									JOINT HeadTop_End
									{
										OFFSET 0.000000 17.760803 13.332701
										CHANNELS 3 Xrotation Yrotation Zrotation
										End Site
										{
											OFFSET 0 0 0
										}
									}
								}
							}
						}
						JOINT LeftShoulder_virtual
						{
							OFFSET 0.000000 0.000000 0.000000
							CHANNELS 3 Xrotation Yrotation Zrotation
							JOINT LeftShoulder
							{
								OFFSET 6.292450 5.785301 -0.669000
								CHANNELS 3 Xrotation Yrotation Zrotation
								JOINT LeftShoulder_split
								{
									OFFSET 6.292450 5.785301 -0.669000
									CHANNELS 3 Xrotation Yrotation Zrotation
									JOINT LeftArm
									{
										OFFSET 13.907140 -6.093903 1.965100
										CHANNELS 3 Xrotation Yrotation Zrotation
										JOINT LeftForeArm
										{
											OFFSET 34.140198 0.000000 0.000000
											CHANNELS 3 Xrotation Yrotation Zrotation
											JOINT LeftHand
											{
												OFFSET 40.960209 0.000000 0.000000
												CHANNELS 3 Xrotation Yrotation Zrotation
												End Site
												{
													OFFSET 0 0 0
												}
											}
										}
									}
								}
							}
						}
						JOINT RightShoulder_virtual
						{
							OFFSET 0.000000 0.000000 0.000000
							CHANNELS 3 Xrotation Yrotation Zrotation
							JOINT RightShoulder
							{
								OFFSET -6.292450 5.785301 -0.669000
								CHANNELS 3 Xrotation Yrotation Zrotation
								JOINT RightShoulder_split
								{
									OFFSET -6.292450 5.785301 -0.669000
									CHANNELS 3 Xrotation Yrotation Zrotation
									JOINT RightArm
									{
										OFFSET -13.907140 -6.093903 1.965100
										CHANNELS 3 Xrotation Yrotation Zrotation
										JOINT RightForeArm
										{
											OFFSET -34.140198 0.000000 0.000000
											CHANNELS 3 Xrotation Yrotation Zrotation
											JOINT RightHand
											{
												OFFSET -40.960209 0.000000 0.000000
												CHANNELS 3 Xrotation Yrotation Zrotation
												End Site
												{
													OFFSET 0 0 0
												}
											}
										}
									}
								}
							}
						}
					}
				}
			}
		}
	}
}
MOTION
Frames: 10
Frame Time: 0.03333333
6.733423 82.354507 161.893234 0.000000 0.000000 0.000000 4.169738 -3.570970 -0.408203 34.410138 42.222829 4.308949 22.367399 10.952061 -2.116372 -30.330381 24.911600 -18.154651 -12.395950 -5.273008 -5.502267 0.000000 0.000000 0.000000 4.717726 -3.548223 -1.275478 -77.308425 6.921887 -5.874120 47.251109 -7.145665 3.989847 13.537097 1.494359 19.623615 10.093694 -1.667237 -19.696577 0.000000 0.000000 0.000000 2.581063 -1.390679 -0.144249 2.232129 -12.022824 3.790025 2.642392 -6.163975 -0.920593 0.204742 -1.054514 0.119010 0.000000 0.000000 0.000000 5.864231 -5.121143 1.345507 12.217599 19.336896 6.732125 3.241898 12.785697 -1.305101 0.000000 0.000000 0.000000 4.575978 -5.925711 0.280645 1.939859 -13.183958 -10.629633 -4.372652 0.084019 -7.635735 -60.888179 -19.245409 -25.721908 -22.954618 -54.745308 -4.548929 0.000000 0.000000 0.000000 3.996683 -6.548480 0.829879 -0.630618 0.526602 -14.037465 -10.733795 -8.105140 -4.744443 -44.854822 39.551532 48.081786 5.094920 3.567224 -0.510821 0.000000 0.000000 0.000000 
5.906542 82.257454 165.532928 0.000000 0.000000 0.000000 5.148288 -8.843771 -1.655090 38.000782 44.933725 1.879092 16.462551 11.830009 -2.580128 -25.391923 22.219840 -16.292105 -21.214566 -5.712898 -5.876661 0.000000 0.000000 0.000000 5.794654 -9.616913 -2.221161 -75.856197 7.514829 -0.736391 50.744617 -10.865253 5.473713 9.480294 -2.575342 16.382941 12.067086 -2.444988 -19.876638 0.000000 0.000000 0.000000 3.594849 -6.942063 -1.557157 2.301460 -13.474819 5.193993 3.419737 -8.899953 -0.478627 0.042855 -1.049771 0.075187 0.000000 0.000000 0.000000 6.457636 -7.862209 2.105413 8.521720 21.593985 6.438857 8.781775 20.529930 -1.422929 0.000000 0.000000 0.000000 4.826914 -8.759134 0.502311 0.414123 -21.485659 -13.741378 -3.675202 -1.046811 -6.065380 -52.244243 -28.847345 -24.255854 -13.560542 -40.870715 -2.183298 0.000000 0.000000 0.000000 4.590918 -9.189017 1.785314 -0.640089 -3.914184 -6.508545 -8.438819 -7.079356 -4.534016 -29.457650 34.260000 35.233042 3.143157 -3.858110 1.664543 0.000000 0.000000 0.000000 
5.322200 82.278419 169.233719 0.000000 0.000000 0.000000 6.431327 -14.505244 -2.857728 37.070838 46.837988 2.881550 14.843603 11.718770 -3.748334 -16.680982 20.147890 -14.909839 -27.822986 -5.588883 -6.881658 0.000000 0.000000 0.000000 6.929126 -15.039043 -3.023766 -74.972753 8.437205 3.525511 55.135589 -12.521593 6.624218 6.702782 -5.009062 14.228086 12.883765 -2.887202 -19.490826 0.000000 0.000000 0.000000 5.231211 -11.928002 -2.659220 2.271448 -14.184726 6.548013 4.046185 -11.022396 -0.180607 -0.059383 -0.903622 0.032271 0.000000 0.000000 0.000000 7.057475 -9.973443 2.652929 4.057304 23.257682 6.689558 12.719985 26.343783 -2.430356 0.000000 0.000000 0.000000 4.888442 -10.910503 0.587977 -1.038956 -28.362634 -15.678363 -2.570900 -2.271880 -4.226218 -43.751668 -35.209113 -22.311604 -5.181849 -29.810866 -1.507983 0.000000 0.000000 0.000000 4.842160 -11.203610 2.461094 -0.478500 -7.337620 -0.172678 -6.400154 -5.956640 -4.287708 -19.532681 27.610978 26.108231 0.673505 -3.719511 2.885023 0.000000 0.000000 0.000000 
4.966177 82.302902 173.237244 0.000000 0.000000 0.000000 7.589650 -20.438286 -4.024378 31.475878 47.576198 7.825142 18.555295 10.753714 -5.758769 -6.906029 19.454867 -13.378893 -28.914923 -4.961228 -8.583179 0.000000 0.000000 0.000000 7.821395 -19.914183 -4.006642 -74.145863 9.387952 6.725102 58.557671 -12.211915 7.022653 5.643829 -5.368522 14.133917 11.707613 -2.873252 -18.587499 0.000000 0.000000 0.000000 7.265744 -16.867098 -3.516474 2.329532 -14.116489 7.658330 4.412328 -12.418137 -0.058565 -0.096077 -0.606867 0.063750 0.000000 0.000000 0.000000 7.450265 -11.368397 2.876167 -0.708887 24.209898 7.379589 14.521093 30.291148 -3.655408 0.000000 0.000000 0.000000 4.600710 -12.304009 0.499689 -1.834735 -33.373534 -16.085939 -1.000960 -2.988051 -2.588061 -39.268305 -38.222336 -22.782246 2.866497 -23.056386 -1.196909 0.000000 0.000000 0.000000 4.650228 -12.459577 2.801302 -0.379081 -9.318574 4.672592 -4.133346 -5.030089 -3.961547 -14.257733 21.476411 19.252743 -2.467493 1.308411 3.756823 0.000000 0.000000 0.000000 
4.823954 82.413071 177.468079 0.000000 0.000000 0.000000 8.416011 -26.255940 -5.272357 21.785754 46.638270 15.890384 26.837792 9.463314 -8.239617 0.141173 20.066956 -11.002614 -25.796795 -4.193649 -10.768802 0.000000 0.000000 0.000000 8.304265 -24.582930 -5.196114 -72.224203 10.230625 8.779864 59.479534 -10.898230 6.710677 5.001093 -4.405075 15.030507 9.941274 -2.650449 -16.873096 0.000000 0.000000 0.000000 9.156125 -22.051168 -4.265514 2.551458 -13.311759 8.423896 4.462578 -13.105843 -0.014140 -0.014549 -0.245575 0.170339 0.000000 0.000000 0.000000 7.417013 -12.081628 2.794547 -5.133560 24.576590 8.256326 14.202533 32.617732 -4.662426 0.000000 0.000000 0.000000 3.916570 -12.993614 0.215544 -1.739941 -36.522080 -15.159593 0.368262 -2.713644 -1.341631 -40.645978 -38.522800 -26.971300 10.751015 -19.585528 -0.428790 0.000000 0.000000 0.000000 4.113712 -12.986304 2.908595 -0.498681 -9.760794 7.961166 -1.950512 -4.725899 -3.318774 -12.214439 16.815934 13.343469 -5.945322 8.374599 4.660886 0.000000 0.000000 0.000000 
4.837169 82.984634 182.046722 0.000000 0.000000 0.000000 8.864319 -31.091475 -6.657515 9.583749 42.783332 25.644362 38.349566 6.747489 -10.204785 4.154383 20.866510 -9.553525 -23.331311 -3.437311 -12.724551 0.000000 0.000000 0.000000 8.556975 -29.073428 -6.421203 -68.604134 11.035768 9.872262 57.451173 -9.446281 5.866309 2.906840 -3.029202 15.595945 9.798898 -2.497194 -14.182181 0.000000 0.000000 0.000000 10.438654 -27.368674 -5.002208 2.904049 -11.974759 8.799439 4.162398 -13.185875 0.035059 0.139734 0.130163 0.192113 0.000000 0.000000 0.000000 6.863047 -12.209019 2.490471 -8.614175 24.466562 9.005662 12.132296 33.584836 -5.281162 0.000000 0.000000 0.000000 3.028735 -13.097172 -0.190176 -0.755272 -38.003442 -13.236024 1.741099 -1.894613 -0.048169 -46.778169 -37.100372 -33.693299 17.789538 -17.612179 0.793140 0.000000 0.000000 0.000000 3.360160 -12.886205 2.934057 -0.754194 -9.122972 9.796948 0.194587 -5.201627 -2.452221 -12.593016 13.750271 8.153812 -9.277257 14.434674 5.532892 0.000000 0.000000 0.000000 
4.754620 84.195183 187.060303 0.000000 0.000000 0.000000 8.819559 -34.850255 -7.993318 -2.050328 35.818967 34.132743 50.293330 2.896904 -10.590777 5.881719 20.681958 -9.371328 -24.605533 -2.528751 -13.864054 0.000000 0.000000 0.000000 8.549148 -32.952456 -7.545502 -63.533115 11.752234 9.856982 54.024785 -8.089512 4.936464 -0.371283 -1.584124 15.315902 11.247454 -2.221786 -10.752299 0.000000 0.000000 0.000000 10.930060 -32.297820 -5.674513 3.333189 -10.422597 8.625139 3.537369 -12.827169 0.134004 0.245991 0.354699 0.227496 0.000000 0.000000 0.000000 5.756309 -11.869062 2.114079 -10.403248 24.243992 9.313917 9.262965 33.389189 -5.790184 0.000000 0.000000 0.000000 2.179541 -12.828531 -0.608382 0.928038 -37.983812 -10.549365 2.554499 -0.770561 1.037120 -55.430561 -35.623763 -40.806648 22.885189 -15.089763 1.832058 0.000000 0.000000 0.000000 2.524766 -12.331844 2.981308 -0.980733 -7.844844 10.360886 2.244242 -6.177607 -1.778658 -15.637918 11.987034 4.023610 -11.818815 18.119882 6.014368 0.000000 0.000000 0.000000 
4.257417 86.056435 192.459808 0.000000 0.000000 0.000000 8.323566 -37.824440 -8.967766 -12.182275 27.124776 39.932660 61.168893 -0.680521 -9.368682 6.454518 19.679419 -9.694535 -28.190269 -1.699174 -14.057240 0.000000 0.000000 0.000000 8.146515 -36.384503 -8.228781 -57.753976 12.271029 8.672099 50.581789 -6.598376 3.919446 -3.416938 -0.349194 15.164967 12.201291 -1.577142 -7.226470 0.000000 0.000000 0.000000 10.392679 -36.369398 -6.122748 3.663001 -8.914759 7.798045 2.708348 -12.206524 0.295770 0.224114 0.426467 0.126651 0.000000 0.000000 0.000000 4.177562 -11.195270 1.793210 -10.054923 24.118161 9.018215 6.567161 32.291809 -6.538367 0.000000 0.000000 0.000000 1.621430 -12.316590 -0.937957 3.098877 -36.677187 -7.172834 2.352992 0.111308 2.210607 -64.588215 -35.707023 -46.510057 25.276650 -12.557915 2.342625 0.000000 0.000000 0.000000 1.717772 -11.480576 3.158228 -1.124455 -6.484373 9.514858 3.955265 -7.015512 -1.952652 -22.182329 11.661173 1.580956 -13.277391 20.394183 5.960297 0.000000 0.000000 0.000000 
3.281507 88.365021 198.165283 0.000000 0.000000 0.000000 7.675061 -40.214617 -9.081049 -20.636315 18.390885 42.454461 69.451754 -3.150842 -6.867075 6.763777 19.143538 -10.498730 -28.815318 -1.326619 -13.864460 0.000000 0.000000 0.000000 7.492280 -39.163389 -8.220677 -51.775846 12.556937 6.589265 47.505598 -4.631331 2.573029 -6.493524 0.466019 16.239511 10.517932 -0.631208 -4.369313 0.000000 0.000000 0.000000 9.068037 -39.596468 -6.319307 3.863620 -7.665781 6.335812 1.737194 -11.431529 0.471232 0.128409 0.396738 -0.036762 0.000000 0.000000 0.000000 2.368845 -10.298984 1.569415 -7.562846 24.102643 8.136755 4.740641 30.611426 -7.754362 0.000000 0.000000 0.000000 1.424824 -11.635340 -1.077786 5.495021 -33.985498 -3.179276 1.502014 0.410471 3.043346 -73.301979 -38.855952 -50.396346 24.791104 -11.219768 2.387645 0.000000 0.000000 0.000000 0.999305 -10.461471 3.415099 -1.173551 -5.560994 6.944126 4.451766 -7.195226 -2.419934 -32.986563 12.734002 1.335511 -13.710262 23.137059 5.829350 0.000000 0.000000 0.000000 
2.018635 90.637550 204.010513 0.000000 0.000000 0.000000 7.127434 -42.191561 -8.072274 -28.172292 11.304136 42.159011 73.477263 -3.959755 -4.139309 6.339379 19.941738 -11.540594 -21.936828 -1.569370 -13.928564 0.000000 0.000000 0.000000 6.794868 -41.210578 -7.431429 -45.647363 12.326064 3.701948 45.141232 -2.134819 0.905675 -10.255431 0.807780 18.493915 5.973113 0.415332 -2.425565 0.000000 0.000000 0.000000 7.395783 -41.947337 -6.049412 3.848052 -6.676463 4.378208 0.767824 -10.552046 0.638278 0.008719 0.403603 -0.096225 0.000000 0.000000 0.000000 0.452710 -9.248798 1.425831 -3.380991 24.101190 6.854835 3.936861 28.623972 -9.392349 0.000000 0.000000 0.000000 1.572740 -10.800325 -0.953219 7.745687 -29.789190 1.268088 -0.043233 0.218001 3.477037 -81.467232 -44.854170 -52.464572 22.038965 -12.528326 2.204336 0.000000 0.000000 0.000000 0.401488 -9.340617 3.669263 -1.317739 -5.131707 2.674165 4.199065 -6.797023 -3.157668 -47.865320 14.691353 3.565277 -13.589278 28.072487 6.271764 0.000000 0.000000 0.000000 
